**ABCDEFGHIJKLMNOPQRSTUVWXYZabcdefghijklmnopqrstuvwxyz**************************
**PARASOLID !"#$%&'()*+,-./:;<=>?@[\]^_`{|}~0123456789**************************
**PART1;
MC=AMD64;
MC_MODEL=Intel64 Family 6 Model 158 Stepping 10, GenuineIntel;
MC_ID=unknown;
OS=Windows_NT;
OS_RELEASE=unknown;
FRU=Parasolid Version 30.0, build 310,  6- 8-2018;
APPL=SOLIDWORKS 2018-2018211;
SITE=;
USER=unknown;
FORMAT=text;
GUISE=transmit;
KEY=sample;
FILE=sample.x_t;
DATE=Sat Jul 10 09:42:22 2021;
**PART2;
SCH=SCH_3000310_30000;
USFLD_SIZE=0;
**PART3;
**END_OF_HEADER*****************************************************************
T51 : TRANSMIT FILE created by modeller version 300031023 SCH_3000310_30000_1300
6205 0 12 33 CCCCCCI4 mesh1006 0 I8 polyline1008 0 CCCCCCCDI5 owner1040 0 CCCCCC
I13 boundary_mesh1006 0 I17 boundary_polyline1008 0 CCCA16 index_map_offset0 0 1
 dA9 index_map82 0 A17 node_id_index_map82 0 A20 schema_embedding_map82 0 A5 chi
ld12 0 A14 lowest_node_id0 0 1 dZ1 591 2 3 0 0 0 0 0 0 1e3 1e-8 0 4 0 1 0 1 1 5
 6 7 8 0 0 9 10 11 0 0 0 0 0 0 81 255 2 2 420 12 1 0 0 0 0 13 0 70 11 CI9 list_t
ype0 0 1 uI10 notransmit0 0 1 lCCCDCCDI12 finger_index0 0 1 dI12 finger_block101
2 0 CZ3 0 4 T1 0 0 3 20 1 14 14 13 255 5 74 0 1 0 15 0 0 16 0 50 255 6 70 0 15 1
7 0 0 +.005 0 0 0 0 1 1 0 0 30 255 7 73 0 10 18 0 0 +.005 .02 0 -1 0 0 29 255 8
 56 0 19 20 0 0 0 0 19 8 CCCCCCCA5 owner12 0 Z9 22 0 1 16 0 21 V0 16 255 10 61 0
 ?22 0 23 7 0 0 1 18 255 11 19 0 24 0 25 26 ?1 17 255 24 0 27 28 29 11 30 31 0 3
2 +18 25 16 0 29 11 33 34 ?1 29 26 21 0 11 34 20 .005 0 0 29 34 18 0 25 35 26 .0
05 .02 .01 29 20 57 0 36 26 8 0 .02 .01 18 36 50 0 37 19 38 20 ?1 17 37 0 39 40
 30 36 41 23 0 42 +18 19 49 0 40 33 36 8 ?1 18 38 156 0 43 36 44 45 ?1 17 43 0 4
6 47 48 38 49 50 0 51 +18 44 159 0 52 38 53 54 ?1 29 45 236 0 38 55 35 0 .02 0 2
9 55 238 0 56 57 45 .01 .02 .0125 29 35 15 0 33 45 34 .005 .02 0 18 33 13 0 28 2
5 19 35 ?1 17 28 0 27 29 24 33 58 59 0 47 +15 255 27 3 0 28 60 0 17 29 0 27 24 2
8 25 61 62 0 30 +17 58 0 46 48 47 11 28 59 0 0 -16 59 4 0 ?28 62 63 64 0 0 1 17
 47 0 46 58 43 33 22 10 0 61 -15 46 66 0 43 15 0 17 22 0 65 66 61 38 47 10 0 0 +
17 61 0 65 22 41 33 29 62 0 0 -15 65 178 0 22 67 68 17 41 0 65 61 66 25 37 23 0
 0 -16 62 7 0 ?29 31 59 69 0 0 1 16 31 10 0 ?24 70 62 71 0 0 1 30 69 8 0 62 64 7
1 0 +.005 .02 0 0 0 1 30 64 5 0 59 72 69 0 +.005 0 0 0 1 0 30 71 11 0 31 69 73 0
 +.005 .02 .01 0 -.894427190999916 -.447213595499958 30 73 55 0 50 71 74 0 +0 0
 0 0 1 0 16 50 45 0 ?43 75 76 73 0 0 1 30 74 54 0 75 73 77 0 +0 .02 0 0 0 1 16 7
5 41 0 ?66 63 50 74 0 0 1 30 77 53 0 63 74 78 0 +0 .02 .01 0 -.894427190999916 -
.447213595499958 16 63 37 0 ?40 59 75 77 0 0 1 30 78 71 0 70 77 18 0 +.005 0 0 -
1 0 0 16 70 59 0 ?48 23 31 78 0 0 1 30 18 72 0 23 78 7 0 +.005 .02 .01 -1 0 0 16
 23 60 0 ?37 10 70 18 0 0 1 17 48 0 46 43 58 19 32 70 0 49 +17 32 0 39 30 40 11
 48 70 0 58 -17 49 0 79 42 51 19 43 50 0 0 -15 79 36 0 49 80 0 17 42 0 79 51 49
 36 40 63 0 66 -17 51 0 79 49 42 38 66 75 0 22 -17 66 0 65 41 22 36 51 75 0 0 +1
7 40 0 39 32 37 19 42 63 0 48 +15 39 62 0 40 81 0 14 255 81 63 82 ?60 15 39 5 17
 -0 0 60 15 21 81 1 82 580 83 81 84 0 0 85 86 14 60 1 85 ?80 81 27 5 87 +0 0 80
 81 21 14 15 67 88 ?81 0 46 5 6 -0 0 81 0 21 50 17 68 0 81 89 6 0 +.005 .02 .01
 0 .447213595499958 -.894427190999916 0 .894427190999916 .447213595499958 13 21
 23 0 0 0 0 0 0 9 15 50 89 52 0 80 87 17 0 +0 0 0 1 0 0 0 0 -1 14 80 35 90 ?91 6
0 79 5 89 -0 0 91 60 21 50 87 2 0 60 92 89 0 +.005 0 0 1 0 0 0 0 -1 50 92 210 0
 93 94 87 0 +.01 .023 .0125 -1 0 0 0 0 1 14 93 182 95 ?96 67 97 5 92 -0 0 96 67
 21 50 94 211 0 96 98 92 0 +-.005 .023 -.0025 0 0 1 1 0 0 14 96 186 99 ?100 93 1
01 5 94 -0 0 100 93 21 50 98 212 0 100 102 94 0 +-.005 .023 .0125 1 0 0 0 0 -1 1
4 100 190 103 ?104 96 105 5 98 -0 0 104 96 21 50 102 213 0 104 106 98 0 +-.005 .
023 .0125 0 0 -1 -1 0 0 14 104 194 107 ?108 100 109 5 102 -0 0 108 100 21 50 106
 214 0 67 110 102 0 +0 .02 0 0 -1 0 0 0 -1 14 67 176 111 ?93 91 65 5 106 +0 0 93
 91 21 50 110 215 0 91 112 106 0 +0 .023 0 0 -1 0 0 0 -1 14 91 171 113 ?67 80 11
4 5 110 -0 0 67 80 21 51 255 112 216 0 108 115 110 0 --.0025 .023 .005 0 -1 0 5e
-4 0 0 -1 14 108 198 116 ?117 104 118 5 112 +0 0 117 104 21 51 115 217 0 117 0 1
12 0 -.0075 .023 .005 0 -1 0 5e-4 0 0 -1 14 117 203 119 ?0 108 120 5 115 +0 0 0
 108 21 81 1 119 591 83 117 121 0 116 0 122 15 120 206 0 123 117 124 17 123 0 12
0 123 123 0 125 126 0 0 +15 124 207 0 127 117 0 17 127 0 124 127 127 0 128 129 0
 0 -17 128 0 130 128 128 0 127 129 0 0 +16 129 131 0 ?128 126 0 131 0 0 1 16 126
 153 0 ?123 132 129 133 0 0 1 31 255 131 232 0 129 133 134 0 +.0075 .02 .005 0 1
 0 0 0 1 5e-4 31 133 233 0 126 0 131 0 +.0075 .023 .005 0 1 0 0 0 1 5e-4 31 134
 231 0 135 131 136 0 +-.0025 .023 .005 0 1 0 0 0 1 5e-4 16 135 150 0 ?137 138 13
2 134 0 0 1 31 136 230 0 132 134 139 0 +-.0025 .02 .005 0 1 0 0 0 1 5e-4 16 132
 128 0 ?140 135 126 136 0 0 1 30 139 229 0 141 136 142 0 +.01 .023 .0125 0 0 -1
 16 141 114 0 ?143 144 145 139 0 0 1 30 142 228 0 144 139 146 0 +-.005 .023 -.00
25 -1 0 0 16 144 117 0 ?147 148 141 142 0 0 1 30 146 227 0 148 142 149 0 +-.005
 .023 .0125 0 0 1 16 148 120 0 ?150 151 144 146 0 0 1 30 149 226 0 151 146 152 0
 +-.005 .023 .0125 1 0 0 16 151 123 0 ?52 153 148 149 0 0 1 30 152 225 0 138 149
 154 0 +.01 .02 .0125 0 0 -1 16 138 134 0 ?155 156 135 152 0 0 1 30 154 224 0 15
6 152 157 0 +-.005 .02 -.0025 -1 0 0 16 156 138 0 ?158 159 138 154 0 0 1 30 157
 223 0 159 154 160 0 +-.005 .02 .0125 0 0 1 16 159 142 0 ?161 145 156 157 0 0 1
 30 160 222 0 145 157 162 0 +-.005 .02 .0125 1 0 0 16 145 146 0 ?163 141 159 160
 0 0 1 30 162 221 0 153 160 164 0 +.01 .023 .0125 0 -1 0 16 153 137 0 ?165 166 1
51 162 0 0 1 30 164 220 0 166 162 167 0 +-.005 .023 .0125 0 -1 0 16 166 149 0 ?1
68 169 153 164 0 0 1 30 167 219 0 169 164 72 0 +-.005 .023 -.0025 0 -1 0 16 169
 145 0 ?170 76 166 167 0 0 1 30 72 218 0 76 167 64 0 +.01 .023 -.0025 0 -1 0 16
 76 141 0 ?171 50 169 72 0 0 1 17 171 0 101 158 172 173 174 76 0 155 +15 101 189
 0 158 96 0 17 158 0 101 175 171 176 177 156 0 170 +17 172 0 101 171 175 178 147
 144 0 143 -18 173 163 0 177 176 0 179 ?1 17 174 0 97 180 155 178 171 76 0 0 -17
 155 0 97 174 165 173 181 138 0 0 +15 97 185 0 155 93 0 17 165 0 97 155 180 56 1
82 153 0 181 +17 181 0 183 184 177 56 155 138 0 0 -15 183 180 0 181 67 130 17 18
4 0 183 185 181 186 163 145 0 0 -17 177 0 183 181 185 173 158 156 0 171 -18 56 1
67 0 163 178 186 55 ?1 17 163 0 109 182 168 56 184 145 0 165 +18 178 165 0 172 1
87 56 188 ?1 18 186 166 0 161 56 176 57 ?1 17 161 0 105 189 170 186 185 159 0 16
8 +18 176 164 0 158 186 173 190 ?1 29 57 239 0 186 190 55 -.005 .02 .0125 29 190
 240 0 176 179 57 -.005 .02 -.0025 29 179 241 0 173 54 190 .01 .02 -.0025 29 54
 242 0 44 191 179 .01 .023 .0125 29 191 243 0 53 192 54 -.005 .023 .0125 18 53 1
58 0 150 44 187 191 ?1 29 192 244 0 187 188 191 -.005 .023 -.0025 18 187 157 0 1
47 53 178 192 ?1 29 188 245 0 178 0 192 .01 .023 -.0025 17 147 0 114 150 143 187
 172 144 0 175 +15 114 173 0 143 91 193 17 150 0 114 52 147 53 194 148 0 189 +17
 143 0 114 147 52 178 180 141 0 174 +17 175 0 101 172 158 187 170 169 0 194 -17
 170 0 105 161 194 176 175 169 0 185 +17 194 0 105 170 189 187 150 148 0 0 -15 1
05 193 0 161 100 0 17 189 0 105 194 161 53 168 166 0 195 -17 168 0 109 163 195 1
86 189 166 0 184 +17 195 0 109 168 182 53 52 151 0 0 -15 109 197 0 163 104 0 17
 182 0 109 195 163 44 165 153 0 180 -17 52 0 114 143 150 44 195 151 0 182 +17 18
0 0 97 165 174 44 143 141 0 0 -17 185 0 183 177 184 176 161 159 0 0 -15 193 174
 0 196 91 197 17 196 0 193 196 196 0 137 135 0 0 -15 197 175 0 125 91 0 17 125 0
 197 125 125 0 123 126 0 0 -17 137 0 118 137 137 0 196 135 0 0 +15 118 201 0 137
 108 198 15 198 202 0 199 108 0 17 199 0 198 199 199 0 140 132 0 0 -17 140 0 68
 140 140 0 199 132 0 0 +15 68 179 0 140 67 183 15 130 181 0 128 67 0 80 255 1 83
 200 201 9000 1 1 1 1 1 1 1 1 0 FFFFTFTFFFFFFF1 81 1 121 553 202 117 0 119 203 0
 204 81 1 116 590 83 108 203 0 113 119 205 82 255 1 122 1303249180 81 1 203 552
 202 108 0 116 206 121 207 81 1 113 589 83 91 208 0 111 116 209 82 1 205 1287455
004 81 1 208 546 202 91 0 113 210 211 212 81 1 111 588 83 67 211 0 107 113 213 8
2 1 209 1306788124 81 1 211 547 202 67 0 111 208 214 215 81 1 107 587 83 104 206
 0 103 111 216 82 1 213 1306263836 81 1 206 551 202 104 0 107 217 203 218 81 1 1
03 586 83 100 217 0 99 107 219 82 1 216 1297678620 81 1 217 550 202 100 0 103 22
0 206 221 81 1 99 585 83 96 220 0 95 103 222 82 1 219 1297940764 81 1 220 549 20
2 96 0 99 214 217 223 81 1 95 584 83 93 214 0 90 99 224 82 1 222 1298202908 81 1
 214 548 202 93 0 95 211 220 225 81 1 90 583 83 80 210 0 88 95 226 82 1 224 1298
465052 81 1 210 545 202 80 0 90 227 208 228 81 1 88 582 83 15 229 0 85 90 230 82
 1 226 609550620 81 1 229 542 202 15 0 88 0 84 231 81 1 85 581 83 60 227 0 82 88
 232 82 1 230 610795804 81 1 227 544 202 60 0 85 84 210 233 82 1 232 605094172 8
0 1 202 0 234 8001 0 0 0 0 3 5 0 0 0 FFFFTFTFFFFFFF2 81 1 84 543 202 81 0 82 229
 227 235 83 255 3 233 .776470588235294 .756862745098039 .737254901960784 83 3 23
5 .776470588235294 .756862745098039 .737254901960784 79 255 15 234 SDL/TYSA_COLO
UR83 3 231 .776470588235294 .756862745098039 .737254901960784 83 3 228 .77647058
8235294 .756862745098039 .737254901960784 83 3 225 .776470588235294 .75686274509
8039 .737254901960784 83 3 223 .776470588235294 .756862745098039 .73725490196078
4 83 3 221 .776470588235294 .756862745098039 .737254901960784 83 3 218 .77647058
8235294 .756862745098039 .737254901960784 83 3 215 .776470588235294 .75686274509
8039 .737254901960784 83 3 212 .776470588235294 .756862745098039 .73725490196078
4 83 3 207 .776470588235294 .756862745098039 .737254901960784 83 3 204 .77647058
8235294 .756862745098039 .737254901960784 79 14 201 SWEntUnchanged82 1 86 610271
516 17 30 0 39 37 32 25 24 31 0 41 -19 16 75 0 1 0 9 5 S0 74 4 CI16 index_map_of
fset0 0 1 dCCZ20 14 3 0 0 119 2 121 0 0 0 0 0 0 0 0 0 0 0 0 0 0 0 0 0 80 2 12 23
6 237 8004 0 0 0 0 3 5 0 0 0 FFTFFFFFFFFFFF2 3 83 1 13 1 79 16 237 SDL/TYSA_DENS
ITY1 0 
