**ABCDEFGHIJKLMNOPQRSTUVWXYZabcdefghijklmnopqrstuvwxyz**************************
**PARASOLID !"#$%&'()*+,-./:;<=>?@[\]^_`{|}~0123456789**************************
**PART1;
MC=AMD64;
MC_MODEL=Intel64 Family 6 Model 158 Stepping 10, GenuineIntel;
MC_ID=unknown;
OS=Windows_NT;
OS_RELEASE=unknown;
FRU=Parasolid Version 30.0, build 310,  6- 8-2018;
APPL=SOLIDWORKS 2018-2018211;
SITE=;
USER=unknown;
FORMAT=text;
GUISE=transmit;
KEY=sample_3m;
FILE=sample_3m.x_t;
DATE=Sat Jul 10 09:50:03 2021;
**PART2;
SCH=SCH_3000310_30000;
USFLD_SIZE=0;
**PART3;
**END_OF_HEADER*****************************************************************
T51 : TRANSMIT FILE created by modeller version 300031023 SCH_3000310_30000_1300
6205 0 12 33 CCCCCCI4 mesh1006 0 I8 polyline1008 0 CCCCCCCDI5 owner1040 0 CCCCCC
I13 boundary_mesh1006 0 I17 boundary_polyline1008 0 CCCA16 index_map_offset0 0 1
 dA9 index_map82 0 A17 node_id_index_map82 0 A20 schema_embedding_map82 0 A5 chi
ld12 0 A14 lowest_node_id0 0 1 dZ1 386 0 2 0 0 0 0 0 0 1e3 1e-8 0 3 0 1 0 1 1 4
 5 6 7 0 0 8 9 10 0 0 0 0 0 0 70 11 CI9 list_type0 0 1 uI10 notransmit0 0 1 lCCC
DCCDI12 finger_index0 0 1 dI12 finger_block1012 0 CZ2 0 4 T1 0 0 2 20 1 11 11 13
 255 4 74 0 1 0 12 0 0 13 0 50 255 5 70 0 14 15 0 0 +.005 0 0 0 0 1 1 0 0 30 255
 6 73 0 16 17 0 0 +.005 4 0 -1 0 0 29 255 7 122 0 10 18 0 .005 4 3.75 19 8 CCCCC
CCA5 owner12 0 Z8 22 0 1 13 0 19 V0 16 255 9 127 0 ?20 0 21 22 23 24 1 18 255 10
 120 0 25 0 26 7 ?1 17 255 25 0 27 28 29 10 30 31 0 32 -18 26 117 0 33 10 34 18
 ?1 17 33 0 35 36 37 26 38 21 0 39 -18 34 114 0 28 26 40 41 ?1 29 18 119 0 26 41
 7 .005 4 .25 29 41 116 0 34 42 18 0 4 3.75 29 42 56 0 43 44 41 0 0 0 18 43 49 0
 45 46 47 42 ?1 29 44 57 0 47 48 42 0 4 4 18 47 50 0 49 43 50 44 ?1 29 48 58 0 5
0 51 44 0 4 0 18 50 51 0 52 47 53 48 ?1 29 51 21 0 40 54 48 .005 0 0 18 40 19 0
 55 34 56 51 ?1 29 54 18 0 56 57 51 .005 4 4 18 56 16 0 30 40 46 54 ?1 29 57 15
 0 46 58 54 .005 4 0 18 46 13 0 36 56 43 57 ?1 29 58 266 0 53 59 57 0 4 .25 18 5
3 186 0 37 50 60 58 ?1 29 59 270 0 61 62 58 2.0025 4 3.75 18 61 197 0 63 64 65 5
9 ?1 29 62 271 0 65 66 59 -1.9975 4 3.75 18 65 196 0 67 61 68 62 ?1 29 66 272 0
 68 69 62 -1.9975 4 .25 18 68 194 0 70 65 71 66 ?1 29 69 273 0 71 72 66 2.0025 4
 .25 18 71 189 0 73 68 0 69 ?1 29 72 274 0 60 74 69 2.0025 4.003 3.75 18 60 192
 0 75 53 76 72 ?1 29 74 275 0 76 77 72 -1.9975 4.003 3.75 18 76 191 0 78 60 79 7
4 ?1 29 77 276 0 79 80 74 -1.9975 4.003 .25 18 79 190 0 81 76 64 77 ?1 29 80 277
 0 64 0 77 2.0025 4.003 .25 18 64 195 0 82 79 61 80 ?1 17 82 0 83 84 85 64 81 86
 0 87 -15 255 83 221 0 88 89 0 17 84 0 83 88 82 71 90 91 0 92 +17 85 0 83 82 70
 79 93 94 0 95 -17 81 0 96 78 87 79 82 86 0 85 +16 86 139 0 ?81 97 98 99 0 0 1 1
7 87 0 96 81 75 64 100 98 0 90 +15 96 207 0 87 101 102 17 75 0 96 87 78 60 103 1
04 0 105 +17 100 0 106 107 90 60 87 98 0 0 -16 98 136 0 ?87 86 23 108 0 0 1 17 9
0 0 106 100 92 64 84 91 0 0 -15 106 217 0 92 109 0 17 92 0 106 90 107 71 110 111
 0 0 +16 91 165 0 ?84 112 94 113 0 0 1 16 112 45 0 ?114 115 91 116 0 0 1 16 94 1
69 0 ?93 91 117 118 0 0 1 30 113 250 0 91 118 119 0 +2.0025 4.003 .25 0 -1 0 30
 118 251 0 94 120 113 0 +-1.9975 4.003 .25 0 -1 0 30 119 5 0 121 113 122 0 +.005
 0 0 0 1 0 16 121 4 0 ?123 31 124 119 0 0 1 30 122 8 0 125 119 126 0 +.005 4 0 0
 -1110223024625156e-31 1 16 125 7 0 ?39 127 128 122 31 128 1 30 126 11 0 127 122
 116 0 +.005 4 4 0 -.707106781186548 -.707106781186548 16 127 10 0 ?55 129 125 1
26 0 0 1 30 116 55 0 112 126 130 0 +0 0 0 0 1 0 30 130 54 0 131 116 132 0 +0 4 0
 0 -1110223024625156e-31 1 16 131 41 0 ?37 124 133 130 115 133 1 30 132 53 0 124
 130 134 0 +0 4 4 0 -.707106781186548 -.707106781186548 16 124 37 0 ?45 121 131
 132 0 0 1 30 134 71 0 129 132 17 0 +.005 0 0 -1 0 0 16 129 59 0 ?135 136 127 13
4 0 0 1 30 17 72 0 136 134 6 0 +.005 4 4 -1 0 0 16 136 60 0 ?137 16 129 17 0 0 1
 17 137 0 138 45 139 47 29 136 0 140 +16 16 61 0 ?141 21 136 6 0 0 1 17 141 0 35
 37 36 50 142 16 0 114 +16 21 123 0 ?38 9 16 143 144 145 1 17 38 0 83 70 88 53 3
3 21 0 0 +30 143 256 0 144 146 147 0 +-1.9975 4 .25 -1 0 0 16 144 156 0 ?88 148
 145 143 145 21 1 16 145 162 0 ?70 144 111 143 21 144 1 17 70 0 83 85 38 68 149
 145 0 93 +16 111 152 0 ?92 145 150 146 0 0 1 16 150 180 0 ?151 111 152 153 0 0
 1 30 146 257 0 111 154 143 0 +2.0025 4 3.75 0 0 -1 30 154 258 0 104 155 146 0 +
-1.9975 4.003 3.75 1 0 0 16 104 145 0 ?75 156 97 154 0 0 1 30 155 259 0 97 99 15
4 0 +-1.9975 4.003 3.75 0 0 1 16 97 142 0 ?78 104 86 155 0 0 1 30 99 260 0 86 10
8 155 0 +-1.9975 4.003 .25 -1 0 0 30 108 261 0 98 157 99 0 +2.0025 4.003 3.75 0
 0 -1 31 255 157 262 0 152 153 108 0 +-.0975 4 2 0 1 0 0 0 1 .00049999999999994
 16 152 148 0 ?158 150 159 157 0 0 1 31 153 263 0 150 160 157 0 +-.0975 4.003 2
 0 1 0 0 0 1 .00049999999999994 31 160 264 0 161 162 153 0 +.1025 4 2 0 1 0 0 0
 1 .005 16 161 133 0 ?163 159 0 160 0 0 1 31 162 265 0 159 0 160 0 +.1025 4.003
 2 0 1 0 0 0 1 .005 16 159 183 0 ?164 152 161 162 0 0 1 17 164 0 165 164 164 0 1
66 159 0 0 +15 165 238 0 164 167 168 17 166 0 169 166 166 0 164 159 0 0 -15 169
 209 0 166 101 0 14 255 101 205 170 ?171 172 96 4 173 -0 0 171 172 19 81 255 1 1
70 372 174 101 175 0 0 176 177 14 171 210 176 ?109 101 178 4 179 +172 172 109 10
1 19 14 172 201 180 ?101 181 182 4 179 +171 171 101 181 19 50 173 247 0 101 183
 179 0 +0 4.003 0 0 -1 0 0 0 -1 13 19 23 0 0 0 0 0 0 8 12 14 12 129 184 ?185 0 2
7 4 15 -185 185 185 0 19 81 1 184 375 174 12 186 0 180 187 188 14 185 125 187 ?1
4 12 35 4 15 -12 12 14 12 19 15 27 128 0 28 12 0 50 15 69 0 12 189 5 0 +.005 4 0
 0 -1 -1110223024625156e-31 0 1110223024625156e-31 -1 50 189 68 0 190 191 15 0 +
.005 4 4 0 .707106781186548 -.707106781186548 0 .707106781186548 .70710678118654
8 14 190 63 192 ?193 14 138 4 189 -0 0 193 14 19 50 191 52 0 181 194 189 0 +0 0
 0 1 0 0 0 0 -1 14 181 35 195 ?172 193 196 4 191 -0 0 172 193 19 50 194 2 0 193
 197 191 0 +.005 0 0 1 0 0 0 0 -1 14 193 1 198 ?181 190 199 4 194 +0 0 181 190 1
9 50 197 242 0 109 200 194 0 +2.0025 4.003 3.75 -1 0 0 0 0 1 14 109 214 201 ?89
 171 106 4 197 -0 0 89 171 19 50 200 243 0 89 202 197 0 +-1.9975 4.003 .25 0 0 1
 1 0 0 14 89 218 203 ?204 109 83 4 200 -0 0 204 109 19 50 202 244 0 204 205 200
 0 +-1.9975 4.003 3.75 1 0 0 0 0 -1 14 204 222 206 ?207 89 208 4 202 -0 0 207 89
 19 50 205 245 0 207 179 202 0 +-1.9975 4.003 3.75 0 0 -1 -1 0 0 14 207 226 209
 ?210 204 211 4 205 -0 0 210 204 19 50 179 246 0 171 173 205 0 +0 4 0 0 -1 0 0 0
 -1 81 1 209 383 174 207 212 0 206 213 214 14 210 230 213 ?167 207 215 4 183 +0
 0 167 207 19 15 211 229 0 216 207 0 17 216 0 211 20 217 34 218 23 0 0 +17 20 0
 211 63 216 10 28 9 0 0 +17 217 0 211 216 103 65 219 117 0 218 +17 218 0 220 221
 222 65 216 23 0 0 -16 23 170 0 ?216 98 24 22 24 9 1 16 24 176 0 ?63 23 148 22 9
 23 1 30 22 254 0 23 147 223 0 +-1.9975 4 3.75 1 0 0 30 147 255 0 148 143 22 0 +
-1.9975 4 3.75 0 0 1 30 223 253 0 156 22 120 0 +2.0025 4.003 3.75 0 -1 0 16 156
 155 0 ?107 117 104 223 0 0 1 30 120 252 0 117 223 118 0 +-1.9975 4.003 3.75 0 -
1 0 16 117 179 0 ?217 94 156 120 0 0 1 17 107 0 106 92 100 61 105 156 0 110 +17
 105 0 211 103 63 60 107 156 0 100 -17 110 0 224 225 73 61 92 111 0 0 -15 224 20
4 0 226 172 0 17 225 0 224 226 110 10 63 24 0 20 -17 73 0 224 110 226 71 88 144
 0 84 -17 226 0 224 73 225 26 32 128 0 88 -17 88 0 83 38 84 26 73 144 0 0 +17 32
 0 199 30 39 10 226 128 0 225 +16 128 118 0 ?32 125 31 122 125 31 1 16 31 121 0
 ?30 128 121 122 128 125 1 17 30 0 199 55 32 56 25 31 0 29 +15 199 3 0 123 193 0
 17 55 0 199 123 30 40 139 127 0 227 +17 29 0 27 25 49 56 137 136 0 139 -17 49 0
 27 29 28 47 228 115 0 137 +17 139 0 138 137 227 56 55 127 0 0 -15 138 62 0 45 1
90 0 17 227 0 138 139 45 40 135 129 0 229 -17 45 0 138 227 137 43 140 124 0 135
 +17 135 0 230 114 229 43 227 129 0 231 +17 229 0 230 135 142 40 123 121 0 0 -15
 230 66 0 114 14 0 17 142 0 230 229 114 46 141 16 0 0 -17 123 0 199 39 55 46 229
 121 0 142 +17 39 0 199 32 123 26 36 125 0 226 +17 36 0 35 141 33 46 39 125 0 12
3 -15 35 124 0 33 185 0 17 114 0 230 142 135 50 231 112 0 0 +17 231 0 196 140 52
 43 114 112 0 0 -15 196 36 0 231 181 0 17 140 0 196 228 231 47 45 124 0 0 -17 52
 0 196 231 232 50 37 131 0 141 -17 232 0 196 52 228 53 222 133 0 149 -17 37 0 35
 33 141 53 52 131 0 232 +17 228 0 196 232 140 34 49 115 0 222 -17 222 0 220 218
 149 34 232 133 0 216 +16 133 112 0 ?222 131 115 130 131 115 1 17 149 0 220 222
 221 53 70 145 0 38 -15 220 213 0 149 171 0 17 221 0 220 149 218 68 67 148 0 0 -
17 67 0 208 219 93 65 221 148 0 217 +16 148 166 0 ?67 24 144 147 0 0 1 15 208 22
5 0 67 204 0 17 219 0 208 95 67 76 217 117 0 103 -17 93 0 208 67 95 68 85 94 0 2
21 +17 95 0 208 93 219 79 78 97 0 0 -17 78 0 96 75 81 76 95 97 0 219 +17 103 0 2
11 217 105 76 75 104 0 0 -16 115 115 0 ?49 133 112 130 133 131 1 14 14 67 233 ?1
90 185 230 4 5 -0 0 190 185 19 81 1 233 385 174 14 234 0 213 235 236 80 255 1 17
4 237 238 9000 1 1 1 1 1 1 1 1 0 FFFFTFTFFFFFFF1 81 1 234 327 239 14 0 233 240 2
41 242 81 1 213 384 174 210 243 0 209 233 244 81 1 235 386 174 167 245 0 233 0 2
46 82 255 1 236 -1704787679 14 167 235 235 ?0 210 165 4 247 +0 0 0 210 19 81 1 2
45 339 239 167 0 235 243 0 248 82 1 246 1958805804 80 1 239 0 249 8001 0 0 0 0 3
 5 0 0 0 FFFFTFTFFFFFFF2 81 1 243 338 239 210 0 213 212 245 250 83 255 3 248 .77
6470588235294 .756862745098039 .737254901960784 81 1 212 337 239 207 0 209 251 2
43 252 83 3 250 .776470588235294 .756862745098039 .737254901960784 81 1 251 336
 239 204 0 206 253 212 254 83 3 252 .776470588235294 .756862745098039 .737254901
960784 81 1 206 382 174 204 251 0 203 209 255 81 1 253 335 239 89 0 203 256 251
 257 83 3 254 .776470588235294 .756862745098039 .737254901960784 81 1 203 381 17
4 89 253 0 201 206 258 81 1 256 334 239 109 0 201 259 253 260 83 3 257 .77647058
8235294 .756862745098039 .737254901960784 81 1 201 380 174 109 256 0 198 203 261
 81 1 259 333 239 171 0 176 175 256 262 83 3 260 .776470588235294 .7568627450980
39 .737254901960784 81 1 176 373 174 171 259 0 170 180 263 81 1 175 332 239 101
 0 170 264 259 265 83 3 262 .776470588235294 .756862745098039 .737254901960784 8
1 1 264 331 239 172 0 180 266 175 267 83 3 265 .776470588235294 .756862745098039
 .737254901960784 81 1 180 374 174 172 264 0 176 184 268 81 1 266 330 239 181 0
 195 269 264 270 83 3 267 .776470588235294 .756862745098039 .737254901960784 81
 1 195 378 174 181 266 0 192 198 271 81 1 269 329 239 193 0 198 241 266 272 83 3
 270 .776470588235294 .756862745098039 .737254901960784 81 1 198 379 174 193 269
 0 195 201 273 81 1 241 328 239 190 0 192 234 269 274 83 3 272 .776470588235294
 .756862745098039 .737254901960784 81 1 192 377 174 190 241 0 187 195 275 83 3 2
74 .776470588235294 .756862745098039 .737254901960784 81 1 187 376 174 185 240 0
 184 192 276 82 1 275 -1705311967 81 1 240 326 239 185 0 187 186 234 277 82 1 27
6 1965621548 81 1 186 325 239 12 0 184 0 240 278 83 3 277 .776470588235294 .7568
62745098039 .737254901960784 83 3 278 .776470588235294 .756862745098039 .7372549
01960784 82 1 273 -1710489300 82 1 271 -1706032852 82 1 268 1968242988 82 1 263
 1961820460 82 1 261 1954021676 82 1 258 1953759532 82 1 255 1953497388 79 255 1
5 249 SDL/TYSA_COLOUR51 255 247 249 0 167 0 183 0 -.1025 4.003 2 0 -1 0 .005 0 0
 -1 51 183 248 0 210 247 173 0 --.0975 4.003 2 0 -1 0 .00049999999999994 0 0 -1
 82 1 244 1943011628 83 3 242 .776470588235294 .756862745098039 .737254901960784
 79 14 238 SWEntUnchanged17 28 0 27 49 25 34 20 9 0 228 -17 63 0 211 105 20 61 2
25 24 0 107 +15 215 233 0 151 210 279 17 151 0 215 151 151 0 280 150 0 0 +15 279
 234 0 281 210 0 17 281 0 279 281 281 0 158 152 0 0 -17 158 0 178 158 158 0 281
 152 0 0 +15 178 212 0 158 171 220 17 280 0 102 280 280 0 151 150 0 0 -15 102 20
8 0 280 101 169 82 1 214 1953235244 82 1 188 1966014764 15 182 203 0 163 172 224
 17 163 0 182 163 163 0 282 161 0 0 +17 282 0 168 282 282 0 163 161 0 0 -15 168
 239 0 282 167 0 82 1 177 1962344748 19 13 75 0 1 0 8 4 S0 74 4 CI16 index_map_o
ffset0 0 1 dCCZ20 11 2 0 0 235 245 0 0 0 0 0 0 0 0 0 0 0 0 0 0 0 0 0 0 1 0 
